<svg version="1" xmlns="http://www.w3.org/2000/svg" width="933.333" height="933.333" viewBox="0 0 700.000000 700.000000"><path d="M339.7 3.1c-3.3 1.1-7.8 3.2-10 4.6-2.3 1.4-75.8 74.1-163.4 161.7C13 322.5 7 328.8 3.8 335.5.7 342.1.5 343.1.5 354c0 20.5-8.1 10.9 97.8 116.6 96.1 96 93.3 93.5 105.8 97.3 3.7 1.2 14.6 1.6 18.7.7 11.3-2.4 16.5-5.8 31.7-20.8 7.7-7.6 15.1-15.3 16.3-17.2 6.6-9.8 9.2-23.4 6.6-34.6-2.8-12.1-4.3-13.9-48.6-58-22.9-22.8-44.1-43.8-47.2-46.7-10-9.5-14.7-20.2-14.7-33.3 0-4.7.1-9.2.4-10 .2-.8.7-2.9 1.1-4.5 1.2-4.5 3.5-9.5 7-14.5 4.7-7 152.3-154.3 157.6-157.3 11.3-6.5 23.3-7.7 35.7-3.6 8.8 2.9 13.9 7.4 59.2 52.4 25.5 25.3 46.9 46.5 47.5 47.2.7.6 3.6 2.3 6.5 3.9 14.8 7.7 33 6.4 45.9-3.3 4.5-3.5 24.3-23 28.9-28.5 6.1-7.5 9.4-18.2 8.8-29.2-.6-12.9-4.7-20.3-18.8-34.5C445.2 74.2 378 8 374.5 6.5c-10.1-4.4-13.3-5.1-21-5.2-5.4-.1-9.9.5-13.8 1.8z"/><path d="M336.9 272.9c-2.6 1-5.7 2.6-7 3.5-1.3.9-13.8 13-27.7 26.8-26.4 26.4-29.2 30-31 39.8-.4 2.5-.5 6.7-.1 9.3 1.6 10.2 4.3 13.7 32.1 41.3 30.6 30.5 31.3 30.9 45.3 30.9 8 0 9.6-.3 14.3-2.9 7.1-4 55.4-52.1 58.7-58.5 4.9-9.8 5.1-19 .6-28.3-2.6-5.5-6.6-10-28.4-31.7-23.9-23.9-30.2-29.3-35.8-30.8-5.9-1.5-16.4-1.3-21 .6zM625.5 296.1c-8.7 2.2-15.6 5.5-22 10.6-2.8 2.2-70.8 69.6-151.1 149.9-98.3 98.1-147.3 147.7-149.6 151.4-3.9 6.2-7.3 14.4-8.7 21-1.3 5.7-.8 21.1.9 27 5.4 20.1 22.8 37.3 42.6 42.4 7.8 2 23.2 2.1 30.7.1 6.4-1.7 15.4-6 20.7-10 1.9-1.4 69.9-68.9 151-149.9 118-117.9 148.3-148.7 151.3-153.7 19.6-33.1 3.3-76-33.4-88-8.9-2.8-23.1-3.2-32.4-.8z"/></svg>