<svg version="1" xmlns="http://www.w3.org/2000/svg" width="933.333" height="933.333" viewBox="0 0 700.000000 700.000000"><path d="M6.8 140.2c-.2.7-.4 94.9-.3 209.3v208h84V523l5.5 5.4c11.3 11.2 17 15.3 30.5 21.7 7.2 3.4 21.6 8.2 28.4 9.4 9.2 1.6 14.4 1.9 29.6 2 17.6 0 28.1-.8 35-2.6 2.2-.6 4.8-1.3 5.9-1.5 5-.9 13.9-3.9 21.6-7.1 47.7-20.1 78.4-59.9 87.6-113.3 3-17.7 2.4-55.6-1.1-68-.2-.8-.7-3.1-1-5-.6-3.7-5.3-19.4-6.5-22-8.2-17.1-13.2-26.1-18.7-33.5-16.4-21.9-36.6-37.5-62.3-47.8-9.1-3.6-25.3-8.1-33.5-9.2-2.7-.4-6.3-.9-8-1.2-4.6-.7-29.4-.6-34.5.2-12.4 1.7-17.2 2.6-19.5 3.5-1.4.5-2.5.8-2.5.5 0-.7-15.4 5.2-22 8.4-3.5 1.7-9.1 5.1-12.4 7.5-5.4 3.9-7.8 5.9-16.1 13.6l-2 1.9V139H50.9c-34.1 0-43.8.3-44.1 1.2zm173.5 182.3c31.2 2.4 56.4 25 64.8 58 3.2 12.8 3.2 38 0 50.3-3 11.5-5.5 17.4-10.5 25.1-10.2 15.7-24.9 26.6-42.2 31.2-8 2.1-28.8 3.1-35.9 1.7-20.3-4.1-33.5-11.9-45.7-26.9-16.2-20-21.6-53.1-13.7-84.2 6.5-25.9 26.8-46.7 51.9-53.2 5.9-1.5 20.3-3.4 22.5-2.9.6.2 4.5.5 8.8.9zM527.7 249.6c-.1.1-4.4.4-9.5.8-17.5 1.2-42.3 7.7-57.9 15.2-48 23.2-79.7 67.2-86 119.4-1 8.4-1 32.6 0 41.2 5.7 50.6 35.7 93 82.4 116.2 18.5 9.2 42.5 16.2 63.2 18.3 9.9 1 43.6 1 52.6 0 31.6-3.7 60.7-14.6 80-30.1 5.6-4.4 18.5-16.7 18.5-17.6 0-.6-2.1-2.9-15.6-17.5-5.1-5.5-10.3-11.2-11.6-12.6-8.9-10.2-19.3-20.7-19.7-20.1-1 1.5-12.2 10.2-16.5 12.9-8.9 5.7-21.9 11.1-31 12.9-12.9 2.6-32.6 3.5-43.1 2-2.7-.4-6.6-.9-8.5-1.2-6.4-1-20.9-6.4-28.1-10.6-12.7-7.3-23.6-19.2-29.6-32-2.7-5.9-5.5-14.9-4.8-15.7.3-.2 51.9-.5 114.7-.5l114.1-.1.5-4.5c.7-8.2.7-33.4-.1-40.7-7.9-74.3-62.9-127.9-138.6-134.8-6.2-.6-25-1.2-25.4-.9zm22.9 67.8c17.9 3.3 34.5 13.2 45.1 27.1 6.5 8.4 12.8 23.1 13.5 31.4l.3 3.5h-148l.3-4.2c.4-6.5 5.7-20 10.8-27.5 11.5-16.8 29.4-27.8 49.9-30.5 6.4-.9 23-.7 28.1.2z"/></svg>