<svg xmlns="http://www.w3.org/2000/svg" version="1.1" id="BIURO_x0D_EKSPERTYZ__x0D_I_OPINII" x="0" y="0" width="360" height="89" viewBox="0 0 360 89" xml:space="preserve"><style type="text/css">
	.st0{fill:#FFFFFF;}
	.st1{fill:url(#logo_1_);}
</style>
	<path id="BIURO_EKSPERTYZ_I_OPINII" class="st0" d="M266.5 25.4c0.5 0 0.9 0 1.4 0.1s0.8 0.2 1.2 0.4 0.6 0.4 0.8 0.7c0.2 0.3 0.3 0.7 0.3 1.1 0 0.3 0 0.5-0.1 0.8 -0.1 0.2-0.2 0.5-0.4 0.7 -0.2 0.2-0.4 0.4-0.6 0.5 -0.2 0.1-0.5 0.2-0.8 0.3v0c0.7 0.1 1.3 0.3 1.8 0.8s0.7 1 0.7 1.6c0 0.2 0 0.3 0 0.5 0 0.2-0.1 0.4-0.2 0.6s-0.2 0.4-0.4 0.6c-0.2 0.2-0.4 0.4-0.7 0.5 -0.3 0.2-0.7 0.3-1.1 0.4 -0.4 0.1-1 0.1-1.6 0.1h-4.9v-9.8H266.5zM266.5 29.8c0.4 0 0.8 0 1.1-0.1 0.3-0.1 0.6-0.2 0.8-0.4 0.2-0.2 0.4-0.3 0.5-0.5s0.2-0.4 0.2-0.6c0-1.2-0.9-1.8-2.6-1.8h-3.8v3.5H266.5zM266.5 34.5c0.4 0 0.8 0 1.2-0.1 0.4-0.1 0.7-0.2 1-0.3 0.3-0.2 0.5-0.4 0.7-0.6s0.2-0.6 0.2-1c0-0.6-0.3-1.1-0.8-1.4 -0.5-0.3-1.3-0.5-2.2-0.5h-3.8v3.9H266.5zM274.5 25.4v9.8h-1.1v-9.8H274.5zM278.9 25.4v6.1c0 0.6 0.1 1.1 0.2 1.5s0.4 0.7 0.7 1 0.6 0.4 1.1 0.6 0.9 0.2 1.4 0.2c0.5 0 1-0.1 1.4-0.2 0.4-0.1 0.8-0.3 1.1-0.6 0.3-0.3 0.5-0.6 0.7-1s0.2-0.9 0.2-1.5v-6.1h1.1v6.3c0 0.5-0.1 1-0.2 1.4 -0.2 0.5-0.4 0.9-0.8 1.2 -0.4 0.3-0.8 0.6-1.4 0.8 -0.6 0.2-1.2 0.3-2.1 0.3 -0.8 0-1.5-0.1-2-0.3 -0.6-0.2-1-0.5-1.4-0.8 -0.4-0.3-0.6-0.7-0.8-1.2 -0.2-0.5-0.3-0.9-0.3-1.4v-6.3H278.9zM295.1 25.4c0.5 0 0.9 0.1 1.3 0.2 0.4 0.1 0.8 0.3 1.1 0.5s0.6 0.5 0.8 0.8c0.2 0.3 0.3 0.7 0.3 1.1 0 0.6-0.2 1.2-0.6 1.6s-0.9 0.8-1.7 0.9v0c0.4 0 0.7 0.1 0.9 0.3s0.4 0.3 0.6 0.5 0.3 0.4 0.3 0.7c0.1 0.3 0.1 0.5 0.1 0.8 0 0.2 0 0.4 0 0.6s0 0.5 0.1 0.7c0 0.2 0.1 0.5 0.2 0.7 0.1 0.2 0.2 0.4 0.3 0.5h-1.2c-0.1-0.1-0.1-0.2-0.2-0.3 0-0.1-0.1-0.3-0.1-0.4 0-0.1 0-0.3 0-0.4s0-0.3 0-0.4c0-0.3-0.1-0.7-0.1-1 0-0.3-0.2-0.7-0.3-0.9 -0.2-0.3-0.4-0.5-0.7-0.7s-0.7-0.2-1.2-0.2H291v4.4h-1.1v-9.8H295.1zM295.1 30.1c0.3 0 0.6 0 0.9-0.1 0.3-0.1 0.6-0.2 0.8-0.4 0.2-0.2 0.4-0.4 0.5-0.6 0.1-0.2 0.2-0.5 0.2-0.8 0-0.6-0.2-1.1-0.6-1.4 -0.4-0.3-1-0.5-1.9-0.5H291v3.9H295.1zM301.3 28.4c0.2-0.6 0.6-1.2 1-1.6 0.5-0.5 1-0.8 1.7-1.1 0.7-0.3 1.5-0.4 2.4-0.4 0.9 0 1.7 0.1 2.4 0.4 0.7 0.3 1.2 0.7 1.7 1.1 0.5 0.5 0.8 1 1 1.6 0.2 0.6 0.3 1.3 0.3 1.9 0 0.7-0.1 1.3-0.3 1.9 -0.2 0.6-0.6 1.2-1 1.6 -0.5 0.5-1 0.8-1.7 1.1 -0.7 0.3-1.5 0.4-2.4 0.4 -0.9 0-1.7-0.1-2.4-0.4 -0.7-0.3-1.2-0.7-1.7-1.1 -0.5-0.5-0.8-1-1-1.6 -0.2-0.6-0.3-1.3-0.3-1.9C301 29.7 301.1 29 301.3 28.4zM302.3 31.9c0.2 0.5 0.4 1 0.8 1.4 0.3 0.4 0.8 0.7 1.3 1 0.5 0.2 1.2 0.4 2 0.4 0.8 0 1.4-0.1 2-0.4 0.5-0.2 1-0.6 1.3-1 0.3-0.4 0.6-0.9 0.8-1.4 0.2-0.5 0.2-1 0.2-1.6 0-0.5-0.1-1.1-0.2-1.6 -0.2-0.5-0.4-1-0.8-1.4 -0.3-0.4-0.8-0.7-1.3-1 -0.5-0.2-1.2-0.4-2-0.4 -0.8 0-1.4 0.1-2 0.4 -0.5 0.2-1 0.6-1.3 1 -0.3 0.4-0.6 0.9-0.8 1.4 -0.2 0.5-0.3 1-0.3 1.6C302.1 30.9 302.2 31.4 302.3 31.9zM269.6 42v0.8h-6.8v3.6h6.4v0.8h-6.4V51h6.9v0.8h-8V42H269.6zM273.3 42v5.3l6.7-5.3h1.5l-5.1 4.1 5.4 5.8h-1.4l-4.8-5.1 -2.2 1.8v3.4h-1.1V42H273.3zM284.3 49.8c0.2 0.3 0.5 0.6 0.8 0.8 0.3 0.2 0.7 0.3 1.2 0.4 0.5 0.1 1 0.1 1.5 0.1 0.3 0 0.6 0 1-0.1 0.4-0.1 0.7-0.2 1-0.4 0.3-0.2 0.6-0.4 0.8-0.6 0.2-0.3 0.3-0.6 0.3-0.9 0-0.3-0.1-0.5-0.2-0.7 -0.1-0.2-0.3-0.4-0.6-0.5 -0.2-0.1-0.5-0.3-0.8-0.3 -0.3-0.1-0.6-0.2-0.8-0.2l-2.6-0.5c-0.3-0.1-0.7-0.2-1-0.3 -0.3-0.1-0.6-0.3-0.8-0.4s-0.4-0.4-0.6-0.7 -0.2-0.6-0.2-1c0-0.2 0.1-0.5 0.2-0.8s0.3-0.6 0.6-0.9c0.3-0.3 0.7-0.5 1.2-0.7 0.5-0.2 1.2-0.3 2-0.3 0.6 0 1.1 0.1 1.6 0.2 0.5 0.1 1 0.3 1.4 0.6 0.4 0.3 0.7 0.6 0.9 1s0.3 0.8 0.3 1.3h-1.1c0-0.4-0.1-0.7-0.3-1 -0.2-0.3-0.4-0.5-0.7-0.7 -0.3-0.2-0.6-0.3-1-0.4 -0.4-0.1-0.8-0.1-1.2-0.1 -0.4 0-0.7 0-1.1 0.1 -0.3 0.1-0.7 0.2-0.9 0.3 -0.3 0.2-0.5 0.4-0.6 0.6 -0.2 0.2-0.2 0.6-0.2 0.9 0 0.2 0 0.4 0.1 0.6 0.1 0.2 0.2 0.3 0.4 0.4s0.3 0.2 0.6 0.3c0.2 0.1 0.4 0.1 0.7 0.2l2.8 0.6c0.4 0.1 0.8 0.2 1.2 0.3 0.4 0.1 0.7 0.3 0.9 0.5s0.5 0.4 0.6 0.7c0.2 0.3 0.2 0.6 0.2 1 0 0.1 0 0.3 0 0.4 0 0.2-0.1 0.4-0.2 0.6 -0.1 0.2-0.2 0.4-0.4 0.6 -0.2 0.2-0.4 0.4-0.8 0.6s-0.7 0.3-1.2 0.4c-0.5 0.1-1.1 0.2-1.7 0.2 -0.7 0-1.3-0.1-1.9-0.2 -0.6-0.1-1.1-0.3-1.5-0.6s-0.7-0.6-0.9-1.1 -0.3-0.9-0.3-1.6h1.1C284.1 49.1 284.2 49.5 284.3 49.8zM299.8 42c0.5 0 1 0.1 1.4 0.2 0.4 0.1 0.8 0.3 1.1 0.6 0.3 0.2 0.5 0.5 0.7 0.9 0.2 0.3 0.2 0.7 0.2 1.2 0 0.4-0.1 0.8-0.2 1.2 -0.2 0.3-0.4 0.6-0.7 0.9 -0.3 0.2-0.7 0.4-1.1 0.6 -0.4 0.1-0.9 0.2-1.4 0.2h-4v4.2h-1.1V42H299.8zM299.5 46.8c0.8 0 1.4-0.2 1.9-0.5 0.5-0.3 0.7-0.8 0.7-1.5 0-0.7-0.2-1.2-0.7-1.5 -0.5-0.3-1.1-0.5-1.9-0.5h-3.8v4H299.5zM313.7 42v0.8h-6.8v3.6h6.4v0.8h-6.4V51h6.9v0.8h-8V42H313.7zM321.5 42c0.5 0 0.9 0.1 1.3 0.2 0.4 0.1 0.8 0.3 1.1 0.5s0.6 0.5 0.8 0.8c0.2 0.3 0.3 0.7 0.3 1.1 0 0.6-0.2 1.2-0.6 1.6 -0.4 0.5-0.9 0.8-1.7 0.9v0c0.4 0 0.7 0.1 0.9 0.3 0.2 0.1 0.4 0.3 0.6 0.5 0.2 0.2 0.3 0.4 0.3 0.7 0.1 0.3 0.1 0.5 0.1 0.8 0 0.2 0 0.4 0 0.6s0 0.5 0.1 0.7c0 0.2 0.1 0.5 0.2 0.7 0.1 0.2 0.2 0.4 0.3 0.5h-1.2c-0.1-0.1-0.1-0.2-0.2-0.3 0-0.1-0.1-0.3-0.1-0.4 0-0.1 0-0.3 0-0.4 0-0.1 0-0.3 0-0.4 0-0.3-0.1-0.7-0.1-1 0-0.3-0.2-0.7-0.3-0.9 -0.2-0.3-0.4-0.5-0.7-0.7s-0.7-0.2-1.2-0.2h-4.2v4.4h-1.1V42H321.5zM321.5 46.6c0.3 0 0.6 0 0.9-0.1 0.3-0.1 0.6-0.2 0.8-0.4 0.2-0.2 0.4-0.4 0.5-0.6 0.1-0.2 0.2-0.5 0.2-0.8 0-0.6-0.2-1.1-0.6-1.4 -0.4-0.3-1-0.5-1.9-0.5h-4.1v3.9H321.5zM336 42v0.8h-4v9h-1.1v-9h-4V42H336zM336.7 42h1.3l3.8 5 3.8-5h1.3l-4.5 5.8v4h-1.1v-4L336.7 42zM356.5 42v0.8l-7.6 8.2h7.7v0.8h-9V51l7.6-8.2h-7.1V42H356.5zM262.8 58.5v9.8h-1.1v-9.8H262.8zM271.4 61.5c0.2-0.6 0.6-1.2 1-1.6 0.5-0.5 1-0.8 1.7-1.1 0.7-0.3 1.5-0.4 2.4-0.4 0.9 0 1.7 0.1 2.4 0.4 0.7 0.3 1.2 0.7 1.7 1.1 0.5 0.5 0.8 1 1 1.6s0.3 1.3 0.3 1.9 -0.1 1.3-0.3 1.9 -0.6 1.2-1 1.6c-0.5 0.5-1 0.8-1.7 1.1 -0.7 0.3-1.5 0.4-2.4 0.4 -0.9 0-1.7-0.1-2.4-0.4s-1.2-0.7-1.7-1.1c-0.5-0.5-0.8-1-1-1.6 -0.2-0.6-0.3-1.3-0.3-1.9S271.1 62.1 271.4 61.5zM272.4 65c0.2 0.5 0.4 1 0.8 1.4 0.3 0.4 0.8 0.7 1.3 1 0.5 0.2 1.2 0.4 2 0.4 0.8 0 1.4-0.1 2-0.4s1-0.6 1.3-1c0.3-0.4 0.6-0.9 0.8-1.4 0.2-0.5 0.2-1 0.2-1.6 0-0.5-0.1-1.1-0.2-1.6 -0.2-0.5-0.4-1-0.8-1.4 -0.3-0.4-0.8-0.7-1.3-1s-1.2-0.4-2-0.4c-0.8 0-1.4 0.1-2 0.4 -0.5 0.2-1 0.6-1.3 1s-0.6 0.9-0.8 1.4c-0.2 0.5-0.3 1-0.3 1.6C272.1 63.9 272.2 64.5 272.4 65zM289.6 58.5c0.5 0 1 0.1 1.4 0.2 0.4 0.1 0.8 0.3 1.1 0.6 0.3 0.2 0.5 0.5 0.7 0.9s0.2 0.7 0.2 1.2c0 0.4-0.1 0.8-0.2 1.2 -0.2 0.3-0.4 0.6-0.7 0.9 -0.3 0.2-0.7 0.4-1.1 0.6 -0.4 0.1-0.9 0.2-1.4 0.2h-4v4.2h-1.1v-9.8H289.6zM289.4 63.3c0.8 0 1.4-0.2 1.9-0.5 0.5-0.3 0.7-0.8 0.7-1.5 0-0.7-0.2-1.2-0.7-1.5 -0.5-0.3-1.1-0.5-1.9-0.5h-3.8v4H289.4zM296.8 58.5v9.8h-1.1v-9.8H296.8zM301.4 58.5l6.7 8.3h0v-8.3h1.1v9.8H308l-6.7-8.3h0v8.3h-1.1v-9.8H301.4zM313.6 58.5v9.8h-1.1v-9.8H313.6zM318.2 58.5v9.8h-1.1v-9.8H318.2z"/>
	<path id="BEIO" class="st0" d="M139.7 44.3c2.4-2.1 3.9-5 3.9-8.7 0-7.7-6.4-12.8-14.2-12.8h-17.6v44.7h18.9c8 0 14.5-5.2 14.5-13.1C145.3 49.8 143.1 46.4 139.7 44.3zM122.1 32.3h7.3c2.4 0 3.9 1.7 3.9 4 0 2.3-1.6 4-3.9 4h-7.3V32.3zM130.7 57.8h-8.6v-8.5h8.6c2.6 0 4.2 1.8 4.2 4.3S133.3 57.8 130.7 57.8zM224.6 21.9c-12.9 0-23.4 10.1-23.4 23.2 0 13.1 10.5 23.2 23.4 23.2S248 58.2 248 45.1C248 31.9 237.5 21.9 224.6 21.9zM224.6 58.4c-7.3 0-13.1-5.3-13.1-13.3 0-8 5.8-13.3 13.1-13.3s13.1 5.3 13.1 13.3C237.7 53.1 231.9 58.4 224.6 58.4zM179.3 60.1v4.7c0 1.4-1.1 2.5-2.6 2.5h-23.2c-1.4 0-2.6-1.1-2.6-2.5V25.3c0-1.4 1.1-2.5 2.6-2.5h22.8c1.4 0 2.6 1.1 2.6 2.5V30c0 1.4-1.1 2.5-2.6 2.5h-12.6c-1.4 0-2.6 1.1-2.6 2.5v2.3c0 1.4 1.1 2.5 2.6 2.5h10.9c1.4 0 2.6 1.1 2.6 2.5v4.6c0 1.4-1.1 2.5-2.6 2.5h-10.9c-1.4 0-2.6 1.1-2.6 2.5V55c0 1.4 1.1 2.5 2.6 2.5h12.9C178.2 57.6 179.3 58.7 179.3 60.1zM196 27.9v34.4c0 2.8-2.3 5.1-5.1 5.1s-5.1-2.3-5.1-5.1V27.9c0-2.8 2.3-5.1 5.1-5.1S196 25 196 27.9z"/>
	<linearGradient id="logo_1_" gradientUnits="userSpaceOnUse" x1="20.3" y1="68.3" x2="68.3" y2="23.2">
        <stop offset="0" stop-color="#1D03D4"/>
		<stop offset="1" stop-color="#1A089B"/>
	</linearGradient>
	<path id="logo" class="st1" d="M86.1 39.7L86.1 39.7c-2.9-2.9-7.7-2.9-10.6 0L39.9 75.4c-2.9 2.9-2.9 7.6 0 10.6 2.9 2.9 7.7 2.9 10.6 0l35.7-35.6C89 47.4 89 42.7 86.1 39.7zM24.5 50.3c-1-0.7-1.8-1.7-2.2-2.8 -0.3-0.7-0.4-1.4-0.4-2.2 0 0 0 0 0 0 0-0.1 0-0.1 0-0.2 0-0.3 0-0.5 0.1-0.8 0.3-1.5 1-2.7 2.1-3.6 0.3-0.3 0.4-0.5 0.7-0.8 0.3-0.3 0.5-0.6 0.9-0.9 0.3-0.3 0.5-0.6 0.9-0.9 0.3-0.3 0.5-0.6 0.9-0.9 0.3-0.3 0.5-0.6 0.9-0.9 0.3-0.3 0.5-0.6 0.9-0.9 0.3-0.3 0.5-0.6 0.9-0.9 0.3-0.3 0.5-0.6 0.9-0.9 0.3-0.3 0.5-0.6 0.9-0.9 0.3-0.3 0.5-0.6 0.9-0.9 0.3-0.3 0.5-0.6 0.9-0.9 0.3-0.3 0.5-0.6 0.9-0.9 0.3-0.3 0.5-0.6 0.9-0.9 0.3-0.3 0.5-0.6 0.9-0.9 0.3-0.3 0.5-0.6 0.9-0.9 0.3-0.3 0.5-0.6 0.9-0.9 0.3-0.3 0.5-0.6 0.9-0.9 0.3-0.3 0.5-0.6 0.9-0.9 0.3-0.3 0.5-0.6 0.9-0.9 0.3-0.3 0.5-0.6 0.9-0.9 1-1.2 2.5-2 4.2-2 1.5 0 2.9 0.6 3.9 1.6 0 0 0.1 0.1 0.1 0.1l10.5 10.5c2.1 2.1 5.5 2.1 7.7 0l2.5-2.5c2.1-2.1 2.1-5.5 0-7.7L49 2.6c-2.1-2.1-5.5-2.1-7.7 0L2.7 41.2c-2.1 2.1-2.1 5.5 0 7.7l21.4 21.4c2.1 2.1 5.5 2.1 7.7 0l2.5-2.5c2.1-2.1 2.1-5.5 0-7.7L24.5 50.3zM47.4 52.7l5.6-5.6c1.6-1.6 1.6-4.1 0-5.7l-5.6-5.6c-1.6-1.6-4.1-1.6-5.7 0l-5.6 5.6c-1.6 1.6-1.6 4.1 0 5.7l5.6 5.6C43.2 54.3 45.8 54.3 47.4 52.7z"/>
</svg>