<?xml version="1.0" encoding="utf-8"?>
<!-- Generator: Adobe Illustrator 16.0.0, SVG Export Plug-In . SVG Version: 6.00 Build 0)  -->
<!DOCTYPE svg PUBLIC "-//W3C//DTD SVG 1.1//EN" "http://www.w3.org/Graphics/SVG/1.1/DTD/svg11.dtd">
<svg version="1.1" id="Layer_1" xmlns="http://www.w3.org/2000/svg" xmlns:xlink="http://www.w3.org/1999/xlink" x="0px" y="0px"
	 width="933.9px" height="436.3px" viewBox="0 0 933.9 436.3" style="enable-background:new 0 0 933.9 436.3;" xml:space="preserve"
	>
<path d="M93.3,282.7c-19.4,0-33.1,8.6-42.3,18.5l0.2-103.9l-50.8-0.1L0,430.4l50.8,0.1l0-15.7c14.3,18.6,33,20.5,42.9,20.5
	c20.3,0,36.6-6.7,49.9-19.8c14.3-14,22.9-34.2,23-56.9c0-24.3-10.1-44.2-23.1-56.6C129.6,288.6,110.8,282.8,93.3,282.7z
	 M104.6,382.2c-7,7-15.3,9.6-22.6,9.5c-8.3,0-16.5-3.9-21.9-8.7c-6.7-6.1-10.8-15.7-10.8-24.3c0-8,4.5-17.6,9.6-23
	c5.7-6.1,13.7-9.6,23.2-9.6c10.8,0,18.1,4.8,22.5,9.3c5.7,5.8,9.8,14.7,9.8,24.3C114.5,367.2,111.3,375.5,104.6,382.2z M257.7,283.7
	c-28,0-46.4,9.2-58.2,20.7c-12.4,12.1-21.3,31.3-21.4,55.3c0,27.2,11.7,44.8,20.9,54.1c17.5,17.6,40,21.8,58.8,21.8
	c30.8,0,47.4-9.5,57.9-19.7c10.5-10.2,15-21.4,17.2-29.4l-48.6-0.1c-2.2,4.5-5.7,7.7-8.9,9.6c-6.4,3.5-15.3,3.8-16.5,3.8
	c-11.4,0-17.8-3.9-21-7.1c-6-6.1-8.9-16.3-8.9-24l105.8,0.2l0-5.4c0-16-2.5-40.9-22.5-60.2C295.5,287.2,274.2,283.7,257.7,283.7z
	 M230.6,339.3c1-6.4,4.1-11.5,7.7-15.4c5.4-5.4,12.1-7.7,20.7-7.6c5.1,0,14.3,1,21,7.7c3.8,3.8,7,9.9,8.2,15.4L230.6,339.3z
	 M452.6,286.6c1.3,0,3.5,0.3,10.2,0.7l-0.1,48.3c-2.5-1.3-9.5-5.1-21.9-5.2c-6.7,0-15.9,0.9-23.2,7.6c-10.8,9.9-11.5,24.9-11.5,32.6
	l-0.1,61.1l-50.8-0.1l0.2-143l50.8,0.1l0,23.3c5.1-9.6,12.4-16,20-19.8C433.8,288.1,443,286.5,452.6,286.6z M621.4,300.5
	c12.1,12.2,13.3,24.3,13.3,40l-0.1,90.8l-50.8-0.1l0.1-72.3c0-8.3,0.3-20.8-6.3-27.8c-4.8-5.1-11.1-6.1-16.2-6.1
	c-7.9,0-14.6,2.9-18.8,6.7c-5.1,4.8-8.3,14.1-8.3,22.7l-0.1,76.8l-50.8-0.1l0.2-143l50.8,0.1l0,17.9c14-18.5,32.8-21.1,45.2-21
	C594.1,285.1,609.6,288.7,621.4,300.5z M765.2,302.4c-6-6.7-19.7-18.6-42.6-18.6c-20.3,0-39.1,7.9-51.2,20.1
	c-11.5,11.5-22,30.4-22,57.2c0,21.4,6.6,37.7,20.3,52.5c17.1,18.3,35.9,22.8,51.1,22.8c14,0,32.4-4.1,44.2-20.4l0,15.7l50.8,0.1
	l0.2-143l-50.8-0.1L765.2,302.4z M757.1,383c-6.4,6.4-14.6,9.9-22.9,9.9c-8.6,0-17.5-4.5-22.9-9.6c-6.4-6.1-9.8-15.1-9.8-23.4
	c0-7.4,3.2-16.6,10.2-23.3c7.3-7,15.9-9.3,22.3-9.2c10.8,0,18.1,4.8,22.9,9.3c7.9,7.7,9.8,16.7,9.8,23.4
	C766.6,371.5,761.6,378.5,757.1,383z M933.9,288.9l-0.1,41.9l-28.9,0l-0.2,101.1l-50.8-0.1l0.2-101.1l-16.2,0l0.1-41.9l16.2,0
	l0.1-47l50.8,0.1l-0.1,47L933.9,288.9z M223.9,226l0,19.5l24.1,0L248.3,0l-24.1,0L224,125.6c-6.4-8.4-20.7-23.3-47.5-23.3
	c-35.5-0.1-67.6,24.8-67.7,73c-0.1,49.2,32.3,74.2,67.5,74.2C200.8,249.5,215.8,236.4,223.9,226z M179,227.9
	c-28.8,0-45.5-22.6-45.4-52.6c0.1-34,21.8-51.5,45.6-51.5c21.4,0,46.1,15.9,46.1,51.9C225.3,203.4,208.5,228,179,227.9z M278.7,53
	c0-9.4,7.7-17.2,17.1-17.1c9.4,0,17.1,7.8,17,17.2c0,9.4-7.7,17.2-17.1,17.2C286.4,70.2,278.7,62.4,278.7,53z M283.6,105.9l24.1,0
	l-0.2,139.8l-24.1,0L283.6,105.9z M452.9,126c-6.3-8.4-20.7-23.3-47.5-23.3c-35.5-0.1-67.6,24.8-67.7,73
	c-0.1,49.2,32.3,74.2,67.5,74.2c24.4,0,39.5-13.1,47.6-23.5l0,19.5l24.1,0l0.2-139.8l-24.1,0L452.9,126z M407.9,228.3
	c-28.8,0-45.5-22.6-45.4-52.6c0.1-34,21.8-51.5,45.6-51.5c21.4,0,46.2,15.9,46.1,51.9C454.1,203.8,437.4,228.4,407.9,228.3z
	 M539.7,246l-24.1,0l0.2-139.8l24.1,0l0,16.2c4.4-5.7,16.8-19.5,39.8-19.5c16.4,0,31.5,6.8,39.8,19.3c7,10.4,8,21.9,8,37.4
	l-0.1,86.6l-24.1,0l0.1-85.9c0-8.4-0.6-18.2-6.3-25.6c-4.7-6.1-12-10.1-22.7-10.1c-8.4,0-17.4,2.3-24.4,10.7
	c-9.4,11.1-10.1,27.6-10.1,37.7L539.7,246z M725.1,250.4c24.4,0,39.5-13.1,47.6-23.5l0,19.5l24.1,0l0.2-139.8l-24.1,0l0,19.9
	c-6.3-8.4-20.7-23.3-47.5-23.3c-35.5-0.1-67.6,24.8-67.7,73C657.6,225.4,690,250.3,725.1,250.4z M728,124.8
	c21.4,0,46.2,15.9,46.1,51.9c0,27.6-16.8,52.2-46.3,52.1c-28.8,0-45.5-22.6-45.4-52.6C682.4,142.2,704.2,124.7,728,124.8z"/>
</svg>
